<svg width="42" height="42" viewBox="0 0 42 42" fill="none" xmlns="http://www.w3.org/2000/svg">
<g clip-path="url(#clip0_3_237)">
<path d="M21 35.4375C21 35.4375 4.59375 26.25 4.59375 15.0937C4.59375 13.1215 5.27706 11.2102 6.52742 9.68503C7.77779 8.15983 9.51797 7.11495 11.4519 6.72817C13.3858 6.34139 15.394 6.63659 17.1348 7.56356C18.8756 8.49052 20.2415 9.99199 21 11.8125C21.7585 9.99199 23.1244 8.49052 24.8652 7.56356C26.606 6.63659 28.6142 6.34139 30.5481 6.72817C32.482 7.11495 34.2222 8.15983 35.4726 9.68503C36.7229 11.2102 37.4062 13.1215 37.4062 15.0937C37.4062 26.25 21 35.4375 21 35.4375Z" fill="#E5A8DC" stroke="#69306D" stroke-width="2" stroke-linecap="round" stroke-linejoin="round"/>
</g>
<defs>
<clipPath id="clip0_3_237">
<rect width="42" height="42" fill="white"/>
</clipPath>
</defs>
</svg>
