<svg width="22" height="22" viewBox="0 0 22 22" fill="none" xmlns="http://www.w3.org/2000/svg">
<path fill-rule="evenodd" clip-rule="evenodd" d="M11.6663 0.434066L14.4897 6.42859C14.5935 6.65503 14.8034 6.81479 15.0493 6.85455L21.3627 7.81582C21.6482 7.87117 21.88 8.079 21.9661 8.35669C22.0522 8.63438 21.9786 8.93692 21.7746 9.14404L17.2061 13.8101C17.0297 13.993 16.9505 14.2487 16.9924 14.4993L18.0709 21.088C18.1297 21.3712 18.0206 21.663 17.7905 21.8383C17.5603 22.0135 17.25 22.0409 16.9926 21.9088L11.3457 18.7981C11.1305 18.6788 10.8692 18.6788 10.654 18.7981L5.00708 21.9088C4.74973 22.0409 4.43938 22.0135 4.20921 21.8383C3.97905 21.663 3.86998 21.3712 3.92881 21.088L5.00728 14.4993C5.04924 14.2487 4.96996 13.993 4.79355 13.8101L0.225081 9.14404C0.021062 8.93692 -0.05252 8.63438 0.0335878 8.3567C0.119696 8.07902 0.351539 7.87119 0.636948 7.81584L6.95042 6.85456C7.19631 6.8148 7.40618 6.65503 7.50996 6.42859L10.3334 0.434066C10.4501 0.170207 10.7114 0 10.9998 0C11.2883 0 11.5496 0.170207 11.6663 0.434066Z" fill="#F6AB27"/>
<path fill-rule="evenodd" clip-rule="evenodd" d="M6.50466 14.7444C6.6241 14.0171 6.39124 13.2762 5.87717 12.748L2.30261 9.09697L7.1792 8.35466C7.92444 8.23903 8.56311 7.75975 8.88239 7.07651L11.0001 2.58017L13.117 7.07522C13.4363 7.75901 14.0752 8.23879 14.8209 8.35463L19.6975 9.09694L16.1222 12.7487C15.6085 13.2772 15.3759 14.0181 15.4955 14.7453L16.3241 19.8082L12.078 17.4692C11.4073 17.0989 10.5934 17.0988 9.92253 17.4688L5.67603 19.8082L6.50466 14.7444Z" fill="#F4CD1E"/>
</svg>
